<svg width="220" height="220" viewBox="0 0 220 220" fill="none" xmlns="http://www.w3.org/2000/svg">
<g clip-path="url(#clip0_1968_5896)">
<g clip-path="url(#clip1_1968_5896)">
<path d="M20.6667 -4.93579C20.6667 4.75448 20.6667 187.768 20.6667 278.064" stroke="#9B9B9B" stroke-width="0.166667"/>
<path d="M50.3333 -4.93579C50.3333 4.75448 50.3333 187.768 50.3333 278.064" stroke="#9B9B9B" stroke-width="0.5"/>
<path d="M80 -4.93579C80 4.75448 80 187.768 80 278.064" stroke="#9B9B9B" stroke-width="0.166667"/>
<path d="M109.667 -4.93579C109.667 4.75448 109.667 187.768 109.667 278.064" stroke="#9B9B9B" stroke-width="0.5"/>
<path d="M139.333 -4.93579C139.333 4.75448 139.333 187.768 139.333 278.064" stroke="#9B9B9B" stroke-width="0.166667"/>
<path d="M169 -4.93579C169 1.9467 169 131.932 169 196.064" stroke="#9B9B9B" stroke-width="0.666667"/>
<path d="M198.667 -4.93579C198.667 1.9467 198.667 131.932 198.667 196.064" stroke="#9B9B9B" stroke-width="0.166667"/>
</g>
</g>
<g clip-path="url(#clip2_1968_5896)">
<g clip-path="url(#clip3_1968_5896)">
<path d="M0 21.3976C7.87549 21.3976 156.615 21.3976 230 21.3976" stroke="#9B9B9B" stroke-width="0.166667"/>
<path d="M0 51.0642C7.87549 51.0642 156.615 51.0642 230 51.0642" stroke="#9B9B9B" stroke-width="0.5"/>
<path d="M0 80.7308C7.87549 80.7308 156.615 80.7308 230 80.7308" stroke="#9B9B9B" stroke-width="0.166667"/>
<path d="M0 110.398C7.87549 110.398 156.615 110.398 230 110.398" stroke="#9B9B9B" stroke-width="0.5"/>
<path d="M0 140.064C7.87549 140.064 156.615 140.064 230 140.064" stroke="#9B9B9B" stroke-width="0.166667"/>
<path d="M0 169.731C7.87549 169.731 156.615 169.731 230 169.731" stroke="#9B9B9B" stroke-width="0.5"/>
<path d="M144 199.398C139.069 199.398 45.9455 199.398 6.73532e-06 199.398" stroke="#9B9B9B" stroke-width="0.166667"/>
</g>
</g>
<path opacity="0.9" fill-rule="evenodd" clip-rule="evenodd" d="M159.09 202.208L164.745 207.65L168.176 207.984L163.701 204.048L159.09 202.208Z" fill="white"/>
<path fill-rule="evenodd" clip-rule="evenodd" d="M164.666 207.702L159.014 202.244L155.531 208.512L159.417 214.311L164.666 207.702Z" fill="white"/>
<path fill-rule="evenodd" clip-rule="evenodd" d="M159.493 214.325L164.754 207.737L168.197 208.044L164.063 212.666L159.493 214.325Z" fill="white"/>
<path d="M184.734 205.437H183.223L184.761 207.613L185.53 206.569L184.734 205.437Z" fill="white"/>
<path d="M181.552 208.641L177.723 205.25V206.888L182.786 211.36V205.437H181.552V208.641Z" fill="white"/>
<path d="M187.243 205.437L185.197 208.235V211.176H186.436V208.637L188.772 205.437H187.243Z" fill="white"/>
<path d="M173.253 206.511L174.549 209.011H174.064L173.448 210.217H175.161L175.662 211.176H177.044L173.953 205.173L173.253 206.511Z" fill="white"/>
<path d="M177.723 211.176V211.178H178.957V208.883L177.723 207.799V211.176Z" fill="white"/>
<path d="M172.881 207.254L170.864 211.176H172.242L173.568 208.601L172.881 207.254Z" fill="white"/>
<path d="M204.778 208.834C204.976 208.784 205.162 208.697 205.326 208.577C205.548 208.415 205.727 208.201 205.847 207.954C205.967 207.706 206.024 207.433 206.013 207.159C206.02 206.892 205.962 206.628 205.843 206.389C205.724 206.15 205.548 205.945 205.33 205.791C205.157 205.662 204.961 205.568 204.752 205.514C204.468 205.454 204.178 205.428 203.887 205.437H203.577V206.655H204.02C204.212 206.64 204.404 206.671 204.581 206.744C204.654 206.786 204.713 206.847 204.752 206.921C204.792 206.996 204.809 207.079 204.803 207.163C204.809 207.26 204.786 207.357 204.736 207.441C204.686 207.524 204.612 207.59 204.523 207.631C204.347 207.693 204.16 207.719 203.974 207.708H203.577V208.914H204.02C204.275 208.918 204.53 208.891 204.778 208.834Z" fill="white"/>
<path d="M189.35 206.474C188.938 206.999 188.716 207.649 188.723 208.317C188.724 208.779 188.83 209.234 189.035 209.648C189.239 210.062 189.536 210.423 189.902 210.704C190.345 211.043 190.869 211.26 191.422 211.331V210.086C190.961 209.988 190.555 209.718 190.288 209.33C190.111 209.076 190.003 208.78 189.975 208.471C189.947 208.163 190 207.853 190.128 207.571C190.229 207.336 190.381 207.127 190.571 206.957C190.816 206.746 191.111 206.601 191.427 206.534V205.286C191.018 205.334 190.624 205.464 190.267 205.668C189.91 205.872 189.599 206.146 189.35 206.474Z" fill="white"/>
<path d="M193.202 207.234L194.168 206.465C193.93 206.142 193.629 205.873 193.281 205.674C192.922 205.472 192.525 205.343 192.116 205.295V206.542C192.552 206.629 192.939 206.875 193.202 207.234Z" fill="white"/>
<path d="M214.362 207.234L215.331 206.465C215.093 206.143 214.791 205.874 214.444 205.674C214.085 205.472 213.688 205.343 213.279 205.295V206.542C213.714 206.629 214.1 206.876 214.362 207.234Z" fill="white"/>
<path d="M204.811 209.297C204.82 209.337 204.825 209.378 204.825 209.419C204.835 209.525 204.808 209.631 204.749 209.72C204.69 209.809 204.603 209.874 204.501 209.906C204.332 209.953 204.158 209.973 203.983 209.966H203.586V211.172H203.991C204.257 211.177 204.522 211.153 204.783 211.101C204.978 211.056 205.162 210.974 205.326 210.859C205.549 210.702 205.73 210.492 205.853 210.248C205.981 209.999 206.048 209.723 206.048 209.443C206.05 209.186 205.999 208.932 205.897 208.696C205.62 209.022 205.234 209.235 204.811 209.297Z" fill="white"/>
<path d="M210.511 206.474C210.098 206.999 209.877 207.649 209.886 208.317C209.886 208.779 209.993 209.234 210.197 209.648C210.402 210.062 210.699 210.423 211.065 210.704C211.507 211.044 212.032 211.26 212.585 211.331V210.086C212.124 209.988 211.717 209.718 211.448 209.33C211.272 209.076 211.165 208.78 211.137 208.471C211.109 208.163 211.161 207.853 211.289 207.571C211.389 207.336 211.541 207.126 211.732 206.957C211.977 206.746 212.271 206.6 212.587 206.534V205.286C212.179 205.334 211.785 205.464 211.428 205.668C211.071 205.872 210.759 206.146 210.511 206.474Z" fill="white"/>
<path d="M192.109 210.088V211.336C192.516 211.292 192.91 211.165 193.267 210.963C193.623 210.761 193.934 210.488 194.181 210.161L193.206 209.406C192.937 209.761 192.546 210.004 192.109 210.088Z" fill="white"/>
<path d="M214.367 209.406C214.096 209.763 213.7 210.007 213.259 210.088V211.336C213.666 211.292 214.061 211.165 214.417 210.963C214.774 210.761 215.086 210.488 215.333 210.161L214.367 209.406Z" fill="white"/>
<path d="M208.567 205.437H207.333V211.176H208.567V205.437Z" fill="white"/>
<path d="M196.807 209.552C196.682 209.25 196.627 208.923 196.648 208.597V205.437H195.409V208.71C195.398 209.061 195.444 209.411 195.546 209.747C195.642 210.032 195.798 210.293 196.003 210.514C196.186 210.719 196.404 210.89 196.648 211.019C196.89 211.152 197.153 211.245 197.425 211.291V210.03C197.169 209.95 196.949 209.78 196.807 209.552Z" fill="white"/>
<path d="M198.897 208.601C198.918 208.933 198.86 209.265 198.728 209.57C198.584 209.794 198.363 209.958 198.105 210.03V211.291C198.38 211.247 198.644 211.157 198.888 211.023C199.13 210.89 199.348 210.718 199.535 210.514C199.741 210.294 199.898 210.033 199.994 209.747C200.093 209.41 200.14 209.06 200.131 208.71V205.437H198.897V208.601Z" fill="white"/>
<path d="M202.886 205.437H201.651V211.176H202.886V205.437Z" fill="white"/>
<defs>
<clipPath id="clip0_1968_5896">
<rect width="220" height="220" fill="white"/>
</clipPath>
<clipPath id="clip1_1968_5896">
<rect width="237.333" height="230" fill="white" transform="translate(-9 -4.93579)"/>
</clipPath>
<clipPath id="clip2_1968_5896">
<rect width="220" height="220" fill="white"/>
</clipPath>
<clipPath id="clip3_1968_5896">
<rect width="296.667" height="230" fill="white" transform="matrix(4.37114e-08 1 1 -4.37114e-08 0 -37.9358)"/>
</clipPath>
</defs>
</svg>
