<svg width="230" height="231" viewBox="0 0 230 231" fill="none" xmlns="http://www.w3.org/2000/svg">
<g clip-path="url(#clip0_1959_5738)">
<g clip-path="url(#clip1_1959_5738)">
<path d="M25.6667 0.532104C25.6667 10.2224 25.6667 193.236 25.6667 283.532" stroke="#9B9B9B" stroke-width="0.166667"/>
<path d="M55.3333 0.532104C55.3333 10.2224 55.3333 193.236 55.3333 283.532" stroke="#9B9B9B" stroke-width="0.5"/>
<path d="M85 0.532104C85 10.2224 85 193.236 85 283.532" stroke="#9B9B9B" stroke-width="0.166667"/>
<path d="M114.667 0.532104C114.667 10.2224 114.667 193.236 114.667 283.532" stroke="#9B9B9B" stroke-width="0.5"/>
<path d="M144.333 0.532104C144.333 10.2224 144.333 193.236 144.333 283.532" stroke="#9B9B9B" stroke-width="0.166667"/>
<path d="M174 0.532104C174 7.52982 174 139.691 174 204.897" stroke="#9B9B9B" stroke-width="0.666667"/>
<path d="M203.667 0.532104C203.667 7.52982 203.667 139.691 203.667 204.897" stroke="#9B9B9B" stroke-width="0.166667"/>
</g>
</g>
<g clip-path="url(#clip2_1959_5738)">
<g clip-path="url(#clip3_1959_5738)">
<path d="M230 26.8655C222.125 26.8655 73.3852 26.8655 1.60933e-06 26.8655" stroke="#9B9B9B" stroke-width="0.166667"/>
<path d="M230 56.5321C222.125 56.5321 73.3852 56.5321 1.60933e-06 56.5321" stroke="#9B9B9B" stroke-width="0.5"/>
<path d="M230 86.1987C222.125 86.1987 73.3852 86.1987 1.60933e-06 86.1987" stroke="#9B9B9B" stroke-width="0.166667"/>
<path d="M230 115.865C222.125 115.865 73.3852 115.865 1.60933e-06 115.865" stroke="#9B9B9B" stroke-width="0.5"/>
<path d="M230 145.532C222.125 145.532 73.3852 145.532 1.60933e-06 145.532" stroke="#9B9B9B" stroke-width="0.166667"/>
<path d="M230 175.199C222.125 175.199 73.3852 175.199 1.60933e-06 175.199" stroke="#9B9B9B" stroke-width="0.5"/>
<path d="M230 204.865C222.125 204.865 73.3852 204.865 1.60933e-06 204.865" stroke="#9B9B9B" stroke-width="0.166667"/>
</g>
</g>
<path opacity="0.9" fill-rule="evenodd" clip-rule="evenodd" d="M168.09 211.474L173.745 216.915L177.176 217.249L172.701 213.314L168.09 211.474Z" fill="white"/>
<path fill-rule="evenodd" clip-rule="evenodd" d="M173.666 216.968L168.014 211.51L164.531 217.778L168.417 223.576L173.666 216.968Z" fill="white"/>
<path fill-rule="evenodd" clip-rule="evenodd" d="M168.493 223.59L173.754 217.002L177.197 217.309L173.063 221.932L168.493 223.59Z" fill="white"/>
<path d="M193.734 214.702H192.223L193.761 216.878L194.53 215.835L193.734 214.702Z" fill="white"/>
<path d="M190.552 217.907L186.723 214.516V216.154L191.787 220.626V214.702H190.552V217.907Z" fill="white"/>
<path d="M196.243 214.702L194.198 217.501V220.442H195.436V217.902L197.772 214.702H196.243Z" fill="white"/>
<path d="M182.253 215.777L183.549 218.277H183.064L182.448 219.482H184.161L184.662 220.442H186.045L182.953 214.438L182.253 215.777Z" fill="white"/>
<path d="M186.723 220.442V220.444H187.957V218.148L186.723 217.064V220.442Z" fill="white"/>
<path d="M181.881 216.519L179.864 220.442H181.243L182.568 217.867L181.881 216.519Z" fill="white"/>
<path d="M213.778 218.099C213.976 218.05 214.162 217.962 214.326 217.842C214.548 217.681 214.727 217.467 214.847 217.219C214.967 216.972 215.024 216.699 215.013 216.424C215.02 216.157 214.962 215.893 214.843 215.654C214.724 215.416 214.548 215.21 214.33 215.057C214.157 214.928 213.961 214.834 213.752 214.78C213.468 214.719 213.178 214.693 212.887 214.702H212.577V215.921H213.02C213.212 215.906 213.404 215.936 213.581 216.01C213.654 216.051 213.713 216.113 213.752 216.187C213.792 216.261 213.809 216.345 213.803 216.428C213.809 216.525 213.786 216.622 213.736 216.706C213.686 216.79 213.612 216.856 213.523 216.896C213.347 216.958 213.16 216.984 212.974 216.973H212.577V218.179H213.02C213.275 218.184 213.53 218.157 213.778 218.099Z" fill="white"/>
<path d="M198.35 215.739C197.938 216.265 197.717 216.915 197.723 217.583C197.724 218.045 197.831 218.5 198.035 218.914C198.239 219.327 198.536 219.689 198.902 219.97C199.345 220.309 199.869 220.525 200.422 220.597V219.351C199.962 219.254 199.556 218.983 199.288 218.596C199.111 218.342 199.003 218.046 198.975 217.737C198.947 217.429 199 217.118 199.128 216.836C199.23 216.602 199.381 216.392 199.571 216.222C199.817 216.012 200.111 215.866 200.427 215.799V214.552C200.019 214.6 199.624 214.73 199.267 214.934C198.911 215.138 198.599 215.412 198.35 215.739Z" fill="white"/>
<path d="M202.202 216.499L203.168 215.73C202.931 215.408 202.629 215.138 202.282 214.939C201.922 214.738 201.526 214.609 201.116 214.56V215.808C201.552 215.894 201.94 216.141 202.202 216.499Z" fill="white"/>
<path d="M223.363 216.499L224.331 215.73C224.093 215.409 223.792 215.139 223.445 214.939C223.085 214.738 222.689 214.609 222.279 214.56V215.808C222.714 215.895 223.101 216.141 223.363 216.499Z" fill="white"/>
<path d="M213.811 218.562C213.82 218.602 213.825 218.643 213.825 218.684C213.835 218.79 213.808 218.897 213.749 218.985C213.69 219.074 213.603 219.14 213.501 219.172C213.332 219.218 213.158 219.239 212.983 219.232H212.586V220.437H212.991C213.257 220.442 213.522 220.419 213.783 220.366C213.978 220.322 214.162 220.24 214.326 220.125C214.549 219.968 214.73 219.758 214.853 219.513C214.981 219.264 215.048 218.989 215.048 218.709C215.05 218.452 214.999 218.198 214.897 217.962C214.62 218.287 214.234 218.501 213.811 218.562Z" fill="white"/>
<path d="M219.511 215.739C219.099 216.264 218.878 216.915 218.886 217.583C218.887 218.045 218.993 218.5 219.198 218.914C219.402 219.328 219.699 219.689 220.065 219.97C220.508 220.31 221.032 220.526 221.586 220.597V219.351C221.124 219.254 220.717 218.984 220.449 218.596C220.272 218.341 220.165 218.045 220.137 217.737C220.109 217.429 220.162 217.118 220.289 216.836C220.39 216.601 220.541 216.392 220.732 216.222C220.977 216.012 221.272 215.866 221.588 215.799V214.552C221.18 214.6 220.785 214.73 220.428 214.934C220.072 215.138 219.76 215.412 219.511 215.739Z" fill="white"/>
<path d="M201.109 219.354V220.601C201.517 220.558 201.911 220.431 202.267 220.229C202.623 220.027 202.935 219.754 203.181 219.427L202.206 218.671C201.937 219.026 201.547 219.269 201.109 219.354Z" fill="white"/>
<path d="M223.367 218.671C223.096 219.029 222.701 219.272 222.259 219.354V220.601C222.667 220.557 223.061 220.43 223.418 220.228C223.774 220.026 224.086 219.754 224.333 219.427L223.367 218.671Z" fill="white"/>
<path d="M217.568 214.702H216.333V220.442H217.568V214.702Z" fill="white"/>
<path d="M205.808 218.817C205.682 218.515 205.627 218.189 205.648 217.862V214.702H204.409V217.975C204.398 218.326 204.445 218.676 204.547 219.012C204.642 219.298 204.798 219.559 205.003 219.779C205.187 219.984 205.405 220.155 205.648 220.284C205.89 220.418 206.153 220.51 206.426 220.557V219.296C206.169 219.216 205.95 219.046 205.808 218.817Z" fill="white"/>
<path d="M207.897 217.867C207.918 218.198 207.86 218.53 207.729 218.835C207.585 219.06 207.363 219.224 207.106 219.296V220.557C207.38 220.513 207.645 220.422 207.888 220.289C208.13 220.155 208.349 219.983 208.535 219.779C208.742 219.56 208.898 219.298 208.994 219.012C209.094 218.676 209.14 218.326 209.131 217.975V214.702H207.897V217.867Z" fill="white"/>
<path d="M211.886 214.702H210.651V220.442H211.886V214.702Z" fill="white"/>
<defs>
<clipPath id="clip0_1959_5738">
<rect width="230" height="230" fill="white" transform="translate(0 0.532104)"/>
</clipPath>
<clipPath id="clip1_1959_5738">
<rect width="237.333" height="230" fill="white" transform="translate(-4 0.532104)"/>
</clipPath>
<clipPath id="clip2_1959_5738">
<rect width="230" height="230" fill="white" transform="translate(0 0.532104)"/>
</clipPath>
<clipPath id="clip3_1959_5738">
<rect width="296.667" height="230" fill="white" transform="translate(230 -32.4679) rotate(90)"/>
</clipPath>
</defs>
</svg>
