<svg width="2551" height="2535" viewBox="0 0 2551 2535" fill="none" xmlns="http://www.w3.org/2000/svg">
<g clip-path="url(#clip0_6167_34126)">
<path d="M32.4251 1506.66H24.1299V2540.77H32.4251V1506.66Z" fill="#898989"/>
<path d="M32.4251 42.3779H24.1299V456.047H32.4251V42.3779Z" fill="#898989"/>
<path d="M31.0301 576.22C9.10446 576.22 2.49023 565.276 2.49023 548.566V530.252H59.5699V548.493C59.5699 565.166 54.7828 576.22 31.0301 576.22ZM31.0301 565.276C46.8896 565.276 50.4343 558.855 50.4343 548.165V540.868H11.7721V548.165C11.7721 559.073 15.9745 565.166 31.0301 565.166V565.276Z" fill="#898989"/>
<path d="M24.6762 585.557C42.6187 585.557 47.7346 593.364 47.7346 606.826C47.7346 620.288 42.6187 628.169 24.6762 628.169C6.73373 628.169 1.6543 620.398 1.6543 606.826C1.6543 593.255 6.62411 585.557 24.6762 585.557ZM24.6762 617.589C36.2237 617.589 39.8414 614.889 39.8414 606.826C39.8414 598.763 36.1872 596.173 24.6762 596.173C13.1652 596.173 9.65715 598.873 9.65715 606.826C9.65715 614.779 13.1652 617.589 24.6762 617.589Z" fill="#898989"/>
<path d="M46.8211 677.095H2.49478V667.901L8.1589 667.025C3.40835 664.472 1.6543 659.473 1.6543 653.308C1.6543 642.144 7.09916 638.423 16.2714 638.423H46.8211V648.711H19.341C13.1652 648.711 10.2053 650.097 10.2053 656.409C9.87634 658.717 10.4203 661.064 11.731 662.993C13.0417 664.922 15.0252 666.295 17.2946 666.843H46.8211V677.095Z" fill="#898989"/>
<path d="M24.6752 731.924C12.1045 731.924 1.65332 728.568 1.65332 714.047C1.65332 705.583 4.61328 701.899 9.21766 700.147L2.4938 699.345V690.078H65.0915V700.33H40.6444C44.591 702.117 47.7337 705.985 47.7337 714.047C47.7337 728.568 38.598 731.924 24.6752 731.924ZM24.6752 721.344C33.2628 721.344 39.8404 720.031 39.8404 711.238C39.8404 702.446 34.2494 699.746 24.6752 699.746C15.101 699.746 9.65617 702.227 9.65617 711.238C9.65617 720.25 16.7089 721.344 24.6752 721.344Z" fill="#898989"/>
<path d="M12.8344 742.434H65.0905V752.795H15.3193C11.19 752.795 10.2033 753.889 10.2033 756.662C10.2129 757.583 10.3232 758.501 10.5322 759.398H2.49284C2.13902 757.768 1.96744 756.104 1.98124 754.436C1.98124 745.498 5.27009 742.434 12.8344 742.434Z" fill="#898989"/>
<path d="M22.7031 803.865L20.8394 774.679C13.5309 774.934 9.87662 778.546 9.87662 787.411C9.86363 792.433 10.8965 797.402 12.9097 802.004H4.50484C2.37394 796.864 1.36487 791.33 1.54488 785.769C1.54488 772.271 6.66086 764.5 24.5668 764.5C42.4727 764.5 47.6252 772.271 47.6252 785.769C47.6252 801.092 38.8915 804.303 28.4403 804.303C26.5196 804.301 24.6018 804.155 22.7031 803.865ZM29.6462 794.744C35.1276 794.744 39.8416 793.613 39.8416 785.733C39.8416 777.853 35.895 775.116 28.148 774.788L29.6462 794.744Z" fill="#898989"/>
<path d="M3.73774 833.962H13.3485C11.7625 839.29 10.9623 844.821 10.9732 850.379C10.9732 858.26 12.9465 861.324 18.6837 861.324C24.4209 861.324 25.5903 859.427 27.8925 850.051C30.7793 838.084 33.9951 834.29 44.1174 834.29C55.7015 834.29 60.4886 841.368 60.4886 854.502C60.5787 859.446 59.8755 864.373 58.4056 869.095H49.2699C50.6728 864.493 51.3991 859.713 51.426 854.903C51.426 848.008 50.0373 844.87 44.3367 844.87C40.0612 844.87 38.6726 846.184 36.4435 855.231C33.2642 868.511 29.3907 872.05 18.5375 872.05C7.68436 872.05 1.65481 865.556 1.65481 850.708C1.63257 845.06 2.33254 839.433 3.73774 833.962Z" fill="#898989"/>
<path d="M46.8185 882.886V893.138H2.49219V882.886H46.8185ZM59.243 882.229C64.2493 882.229 64.7609 883.47 64.7609 888.067C64.7609 892.664 64.2493 893.868 59.243 893.868C54.2366 893.868 53.652 892.664 53.652 888.067C53.652 883.47 54.3828 882.229 59.3161 882.229H59.243Z" fill="#898989"/>
<path d="M65.0881 945.53H2.49046V936.409L8.99506 935.424C4.71957 933.709 1.68652 929.587 1.68652 921.634C1.68652 907.04 10.8222 903.647 24.7084 903.647C37.2426 903.647 47.7669 907.113 47.7669 921.634C47.7669 929.915 44.9531 933.527 40.4583 935.351H65.0881V945.53ZM24.8911 935.752C33.9537 935.752 40.0564 933.381 40.0564 924.406C40.0564 915.431 32.7478 914.337 24.8911 914.337C16.3402 914.337 9.87209 915.541 9.87209 924.406C9.87209 933.272 15.1342 935.752 24.6719 935.752H24.8911Z" fill="#898989"/>
<path d="M22.7031 995.508L20.8394 966.321C13.5309 966.577 9.87662 970.188 9.87662 979.054C9.86363 984.076 10.8965 989.045 12.9097 993.647H4.50484C2.37394 988.507 1.36487 982.972 1.54488 977.412C1.54488 963.95 6.66086 956.143 24.5668 956.143C42.4727 956.143 47.6252 963.95 47.6252 977.412C47.6252 992.771 38.8915 995.945 28.4403 995.945C26.5196 995.944 24.6018 995.797 22.7031 995.508ZM29.6462 986.387C35.1276 986.387 39.8416 985.256 39.8416 977.376C39.8416 969.495 35.895 966.759 28.148 966.431L29.6462 986.387Z" fill="#898989"/>
<path d="M65.0891 1045.82H2.49144V1036.7L8.99604 1035.71C4.72054 1034 1.6875 1029.91 1.6875 1021.92C1.6875 1007.33 10.8232 1003.93 24.7094 1003.93C37.2436 1003.93 47.7679 1007.58 47.7679 1021.92C47.7679 1030.24 44.9541 1033.85 40.4593 1035.64H65.0891V1045.82ZM24.8921 1036.04C33.9547 1036.04 40.0573 1033.67 40.0573 1024.73C40.0573 1015.79 32.7488 1014.62 24.8921 1014.62C16.3411 1014.62 9.87307 1015.86 9.87307 1024.73C9.87307 1033.59 15.1352 1036.04 24.6729 1036.04H24.8921Z" fill="#898989"/>
<path d="M59.5719 1079.7V1099.37C59.5719 1116.44 53.9808 1121.77 40.1677 1121.77C25.2583 1121.77 20.0692 1115.38 20.0692 1099.37V1092.07H2.49219V1079.59L59.5719 1079.7ZM30.1185 1097.54C30.1185 1105.97 32.3476 1108.85 39.9119 1108.85C47.4762 1108.85 49.7054 1105.9 49.7054 1097.54V1092.07H30.1185V1097.54Z" fill="#898989"/>
<path d="M13.3486 1167.7H2.38574V1131.77H59.5751V1166.57H48.6123V1144.24H36.9551V1165.04H26.5039V1144.24H13.3486V1167.7Z" fill="#898989"/>
<path d="M59.5699 1177.88V1190.36H2.49023V1177.88H59.5699Z" fill="#898989"/>
<path d="M3.73772 1222.28H13.3485C11.763 1227.62 10.9629 1233.16 10.9732 1238.73C10.9732 1246.61 12.9465 1249.68 18.6837 1249.68C24.4209 1249.68 25.5903 1247.78 27.8924 1238.44C30.7793 1226.44 33.9951 1222.68 44.1174 1222.68C55.7014 1222.68 60.4885 1229.72 60.4885 1242.85C60.5774 1247.8 59.8743 1252.72 58.4056 1257.45H49.2699C50.6728 1252.83 51.399 1248.04 51.4259 1243.22C51.4259 1236.32 50.0373 1233.22 44.3367 1233.22C40.0612 1233.22 38.6725 1234.54 36.4434 1243.55C33.2642 1256.86 29.3907 1260.4 18.5375 1260.4C7.68434 1260.4 1.65479 1253.91 1.65479 1239.06C1.63302 1233.4 2.33295 1227.76 3.73772 1222.28Z" fill="#898989"/>
<path d="M32.9313 1310.39H2.49121V1300.02H30.0444C36.2932 1300.02 39.1801 1298.53 39.1801 1292.36C39.5523 1289.96 39.0085 1287.5 37.6557 1285.47C36.303 1283.45 34.2394 1282 31.8715 1281.42H2.63738V1271.17H65.0889V1281.78H41.1534C45.8309 1284.26 47.7311 1289.66 47.7311 1295.76C47.7311 1306.85 42.2862 1310.39 32.9313 1310.39Z" fill="#898989"/>
<path d="M22.704 1360.11L20.8403 1330.92C13.5318 1331.14 9.87752 1334.75 9.87752 1343.65C9.87193 1348.67 10.9045 1353.64 12.9106 1358.25H4.50574C2.37511 1353.09 1.36616 1347.55 1.54578 1341.98C1.54578 1328.51 6.66176 1320.71 24.5677 1320.71C42.4736 1320.71 47.6261 1328.51 47.6261 1341.98C47.6261 1357.33 38.8924 1360.55 28.4412 1360.55C26.5204 1360.55 24.6025 1360.4 22.704 1360.11ZM29.6471 1351.1C35.1285 1351.1 39.8425 1349.93 39.8425 1342.05C39.8425 1334.17 35.8959 1331.47 28.1489 1331.1L29.6471 1351.1Z" fill="#898989"/>
<path d="M22.7041 1407.97L20.8404 1378.78C13.5319 1379.04 9.8776 1382.65 9.8776 1391.52C9.86033 1396.54 10.8934 1401.51 12.9106 1406.11H4.50582C2.37492 1400.97 1.36585 1395.44 1.54586 1389.88C1.54586 1376.41 6.66184 1368.61 24.5678 1368.61C42.4737 1368.61 47.6262 1376.41 47.6262 1389.88C47.6262 1405.23 38.8925 1408.41 28.4413 1408.41C26.5206 1408.41 24.6028 1408.26 22.7041 1407.97ZM29.6472 1398.85C35.1286 1398.85 39.8426 1397.72 39.8426 1389.84C39.8426 1381.96 35.896 1379.22 28.1489 1378.89L29.6472 1398.85Z" fill="#898989"/>
<path d="M38.6723 1429.79H17.2948C11.521 1429.79 9.98625 1430.77 9.98625 1435.3C9.94017 1436.66 10.0753 1438.02 10.3882 1439.35H2.42191C2.14447 1437.52 1.99792 1435.68 1.9834 1433.84C1.9834 1423.22 4.79719 1419.54 16.6005 1419.54H38.8184V1413.37H46.8213V1419.54H57.4187V1429.79H46.8213V1439.57H38.6723V1429.79Z" fill="#898989"/>
<rect x="1.41332" y="0.844964" width="2548.17" height="2533" rx="21.0064" stroke="#D9D9D9" stroke-width="1.82665"/>
</g>
<defs>
<clipPath id="clip0_6167_34126">
<rect width="2551" height="2535" fill="white"/>
</clipPath>
</defs>
</svg>
