<svg width="332" height="332" viewBox="0 0 332 332" fill="none" xmlns="http://www.w3.org/2000/svg">
<rect x="0.875" y="0.875" width="330.25" height="330.25" rx="4.125" fill="url(#paint0_radial_1968_5984)" stroke="#9B9B9B" stroke-width="0.25"/>
<path d="M16 1C16 12.2996 16 225.708 16 331" stroke="#9B9B9B" stroke-width="0.25"/>
<path d="M46 1C46 12.2996 46 225.708 46 331" stroke="#9B9B9B" stroke-width="0.75"/>
<path d="M76 1C76 12.2996 76 225.708 76 331" stroke="#9B9B9B" stroke-width="0.25"/>
<path d="M106 1C106 12.2996 106 225.708 106 331" stroke="#9B9B9B" stroke-width="0.75"/>
<path d="M136 1C136 12.2996 136 225.708 136 331" stroke="#9B9B9B" stroke-width="0.25"/>
<path d="M166 1C166 12.2996 166 225.708 166 331" stroke="#9B9B9B" stroke-width="0.75"/>
<path d="M196 1C196 12.2996 196 225.708 196 331" stroke="#9B9B9B" stroke-width="0.25"/>
<path d="M226 1C226 12.2996 226 225.708 226 331" stroke="#9B9B9B" stroke-width="0.75"/>
<path d="M256 1C256 12.2996 256 225.708 256 331" stroke="#9B9B9B" stroke-width="0.25"/>
<path d="M286 1C286 11.5805 286 211.409 286 310" stroke="#9B9B9B" stroke-width="0.75"/>
<path d="M316 1C316 11.5805 316 211.409 316 310" stroke="#9B9B9B" stroke-width="0.25"/>
<path d="M331 16C319.7 16 106.292 16 1.00001 16" stroke="#9B9B9B" stroke-width="0.25"/>
<path d="M331 46C319.7 46 106.292 46 1.00001 46" stroke="#9B9B9B" stroke-width="0.75"/>
<path d="M331 76C319.7 76 106.292 76 1.00001 76" stroke="#9B9B9B" stroke-width="0.25"/>
<path d="M331 106C319.7 106 106.292 106 1.00001 106" stroke="#9B9B9B" stroke-width="0.75"/>
<path d="M331 136C319.7 136 106.292 136 1.00001 136" stroke="#9B9B9B" stroke-width="0.25"/>
<path d="M331 166C319.7 166 106.292 166 1.00001 166" stroke="#9B9B9B" stroke-width="0.75"/>
<path d="M331 196C319.7 196 106.292 196 1.00001 196" stroke="#9B9B9B" stroke-width="0.25"/>
<path d="M331 226C319.7 226 106.292 226 1.00001 226" stroke="#9B9B9B" stroke-width="0.75"/>
<path d="M331 256C319.7 256 106.292 256 1.00001 256" stroke="#9B9B9B" stroke-width="0.25"/>
<path d="M331 286C319.7 286 106.292 286 1.00001 286" stroke="#9B9B9B" stroke-width="0.75"/>
<path d="M262 316C253.063 316 84.2763 316 1 316" stroke="#9B9B9B" stroke-width="0.25"/>
<path opacity="0.9" fill-rule="evenodd" clip-rule="evenodd" d="M270.09 314.442L275.745 319.883L279.176 320.217L274.701 316.281L270.09 314.442Z" fill="white"/>
<path fill-rule="evenodd" clip-rule="evenodd" d="M275.666 319.936L270.014 314.477L266.531 320.745L270.417 326.544L275.666 319.936Z" fill="white"/>
<path fill-rule="evenodd" clip-rule="evenodd" d="M270.493 326.558L275.754 319.97L279.197 320.277L275.063 324.9L270.493 326.558Z" fill="white"/>
<path d="M295.734 317.67H294.223L295.761 319.846L296.53 318.803L295.734 317.67Z" fill="white"/>
<path d="M292.552 320.875L288.723 317.484V319.122L293.787 323.594V317.67H292.552V320.875Z" fill="white"/>
<path d="M298.243 317.67L296.198 320.469V323.41H297.436V320.87L299.772 317.67H298.243Z" fill="white"/>
<path d="M284.253 318.745L285.549 321.245H285.064L284.448 322.45H286.161L286.662 323.41H288.045L284.953 317.406L284.253 318.745Z" fill="white"/>
<path d="M288.723 323.41V323.412H289.957V321.116L288.723 320.032V323.41Z" fill="white"/>
<path d="M283.881 319.487L281.864 323.41H283.243L284.568 320.835L283.881 319.487Z" fill="white"/>
<path d="M315.778 321.067C315.976 321.018 316.162 320.931 316.326 320.81C316.548 320.649 316.727 320.435 316.847 320.187C316.967 319.94 317.024 319.667 317.013 319.392C317.02 319.125 316.962 318.861 316.843 318.622C316.724 318.384 316.548 318.179 316.33 318.025C316.157 317.896 315.961 317.802 315.752 317.748C315.468 317.688 315.178 317.661 314.887 317.67H314.577V318.889H315.02C315.212 318.874 315.404 318.904 315.581 318.978C315.654 319.019 315.713 319.081 315.752 319.155C315.792 319.229 315.809 319.313 315.803 319.396C315.809 319.493 315.786 319.59 315.736 319.674C315.686 319.758 315.612 319.824 315.523 319.864C315.347 319.926 315.16 319.952 314.974 319.941H314.577V321.147H315.02C315.275 321.152 315.53 321.125 315.778 321.067Z" fill="white"/>
<path d="M300.35 318.707C299.938 319.233 299.717 319.883 299.723 320.551C299.724 321.013 299.831 321.468 300.035 321.882C300.239 322.295 300.536 322.657 300.902 322.938C301.345 323.277 301.869 323.493 302.422 323.565V322.319C301.962 322.222 301.556 321.951 301.288 321.564C301.111 321.31 301.003 321.014 300.975 320.705C300.947 320.397 301 320.086 301.128 319.804C301.23 319.57 301.381 319.36 301.571 319.19C301.817 318.98 302.111 318.835 302.427 318.767V317.52C302.019 317.568 301.624 317.698 301.267 317.902C300.911 318.106 300.599 318.38 300.35 318.707Z" fill="white"/>
<path d="M304.202 319.467L305.168 318.698C304.931 318.376 304.629 318.107 304.282 317.907C303.922 317.706 303.526 317.577 303.116 317.528V318.776C303.552 318.862 303.939 319.109 304.202 319.467Z" fill="white"/>
<path d="M325.363 319.467L326.331 318.698C326.093 318.377 325.792 318.107 325.445 317.907C325.085 317.706 324.689 317.577 324.279 317.528V318.776C324.714 318.863 325.101 319.109 325.363 319.467Z" fill="white"/>
<path d="M315.811 321.53C315.82 321.57 315.825 321.611 315.825 321.652C315.835 321.758 315.808 321.865 315.749 321.953C315.69 322.042 315.603 322.108 315.501 322.14C315.332 322.186 315.158 322.207 314.983 322.2H314.586V323.405H314.991C315.257 323.41 315.522 323.387 315.783 323.334C315.978 323.29 316.162 323.208 316.326 323.093C316.549 322.936 316.73 322.726 316.853 322.481C316.981 322.232 317.048 321.957 317.048 321.677C317.05 321.42 316.999 321.166 316.897 320.93C316.62 321.255 316.234 321.469 315.811 321.53Z" fill="white"/>
<path d="M321.511 318.707C321.099 319.232 320.878 319.883 320.886 320.551C320.887 321.013 320.993 321.468 321.198 321.882C321.402 322.296 321.699 322.657 322.065 322.938C322.508 323.278 323.032 323.494 323.586 323.565V322.319C323.124 322.222 322.717 321.952 322.449 321.564C322.272 321.309 322.165 321.013 322.137 320.705C322.109 320.397 322.162 320.086 322.289 319.804C322.39 319.569 322.541 319.36 322.732 319.19C322.977 318.98 323.272 318.834 323.588 318.767V317.52C323.18 317.568 322.785 317.698 322.428 317.902C322.072 318.106 321.76 318.38 321.511 318.707Z" fill="white"/>
<path d="M303.109 322.322V323.569C303.517 323.526 303.911 323.399 304.267 323.197C304.623 322.995 304.935 322.722 305.181 322.395L304.206 321.639C303.937 321.994 303.547 322.237 303.109 322.322Z" fill="white"/>
<path d="M325.367 321.639C325.096 321.997 324.701 322.24 324.259 322.322V323.569C324.667 323.525 325.061 323.398 325.418 323.196C325.774 322.994 326.086 322.722 326.333 322.395L325.367 321.639Z" fill="white"/>
<path d="M319.568 317.67H318.333V323.41H319.568V317.67Z" fill="white"/>
<path d="M307.807 321.785C307.682 321.483 307.627 321.157 307.648 320.83V317.67H306.409V320.943C306.398 321.294 306.445 321.644 306.546 321.98C306.642 322.266 306.798 322.527 307.003 322.747C307.186 322.952 307.405 323.123 307.648 323.252C307.89 323.386 308.153 323.478 308.426 323.525V322.264C308.169 322.184 307.949 322.014 307.807 321.785Z" fill="white"/>
<path d="M309.897 320.835C309.918 321.166 309.86 321.498 309.729 321.803C309.585 322.028 309.363 322.192 309.106 322.264V323.525C309.38 323.481 309.645 323.39 309.888 323.257C310.13 323.123 310.349 322.951 310.535 322.747C310.742 322.528 310.898 322.266 310.994 321.98C311.094 321.644 311.14 321.294 311.131 320.943V317.67H309.897V320.835Z" fill="white"/>
<path d="M313.886 317.67H312.651V323.41H313.886V317.67Z" fill="white"/>
<defs>
<radialGradient id="paint0_radial_1968_5984" cx="0" cy="0" r="1" gradientUnits="userSpaceOnUse" gradientTransform="translate(166 166) rotate(90) scale(198.803)">
<stop stop-color="white" stop-opacity="0.08"/>
<stop offset="1" stop-color="white" stop-opacity="0"/>
</radialGradient>
</defs>
</svg>
