<svg width="432" height="432" viewBox="0 0 432 432" fill="none" xmlns="http://www.w3.org/2000/svg">
<rect x="0.875" y="0.875" width="430.25" height="430.25" rx="4.125" fill="url(#paint0_radial_1983_6404)" stroke="#9B9B9B" stroke-width="0.25"/>
<path d="M6 1C6 15.7237 6 293.802 6 431" stroke="#9B9B9B" stroke-width="0.25"/>
<path d="M36 1C36 15.7237 36 293.802 36 431" stroke="#9B9B9B" stroke-width="0.75"/>
<path d="M66 1C66 15.7237 66 293.802 66 431" stroke="#9B9B9B" stroke-width="0.25"/>
<path d="M96 1C96 15.7237 96 293.802 96 431" stroke="#9B9B9B" stroke-width="0.75"/>
<path d="M126 1C126 15.7237 126 293.802 126 431" stroke="#9B9B9B" stroke-width="0.25"/>
<path d="M156 1C156 15.7237 156 293.802 156 431" stroke="#9B9B9B" stroke-width="0.75"/>
<path d="M186 1C186 15.7237 186 293.802 186 431" stroke="#9B9B9B" stroke-width="0.25"/>
<path d="M216 1C216 15.7237 216 293.802 216 431" stroke="#9B9B9B" stroke-width="0.75"/>
<path d="M246 1C246 15.7237 246 293.802 246 431" stroke="#9B9B9B" stroke-width="0.25"/>
<path d="M276 1C276 15.7237 276 293.802 276 431" stroke="#9B9B9B" stroke-width="0.75"/>
<path d="M306 1C306 15.7237 306 293.802 306 431" stroke="#9B9B9B" stroke-width="0.25"/>
<path d="M336 1C336 15.7237 336 293.802 336 431" stroke="#9B9B9B" stroke-width="0.75"/>
<path d="M366 1C366 15.0047 366 279.502 366 410" stroke="#9B9B9B" stroke-width="0.25"/>
<path d="M396 1C396 15.0047 396 279.502 396 410" stroke="#9B9B9B" stroke-width="0.75"/>
<path d="M426 1C426 15.0047 426 279.502 426 410" stroke="#9B9B9B" stroke-width="0.25"/>
<path d="M431 6C416.276 6 138.198 5.99999 1.00001 5.99998" stroke="#9B9B9B" stroke-width="0.25"/>
<path d="M431 36C416.276 36 138.198 36 1.00001 36" stroke="#9B9B9B" stroke-width="0.75"/>
<path d="M431 66C416.276 66 138.198 66 1.00001 66" stroke="#9B9B9B" stroke-width="0.25"/>
<path d="M431 96C416.276 96 138.198 96 1.00001 96" stroke="#9B9B9B" stroke-width="0.75"/>
<path d="M431 126C416.276 126 138.198 126 1.00001 126" stroke="#9B9B9B" stroke-width="0.25"/>
<path d="M431 156C416.276 156 138.198 156 1.00001 156" stroke="#9B9B9B" stroke-width="0.75"/>
<path d="M431 186C416.276 186 138.198 186 1.00001 186" stroke="#9B9B9B" stroke-width="0.25"/>
<path d="M431 216C416.276 216 138.198 216 1.00001 216" stroke="#9B9B9B" stroke-width="0.75"/>
<path d="M431 246C416.276 246 138.198 246 1.00001 246" stroke="#9B9B9B" stroke-width="0.25"/>
<path d="M431 276C416.276 276 138.198 276 1.00001 276" stroke="#9B9B9B" stroke-width="0.75"/>
<path d="M431 306C416.276 306 138.198 306 1.00001 306" stroke="#9B9B9B" stroke-width="0.25"/>
<path d="M431 336C416.276 336 138.198 336 1.00001 336" stroke="#9B9B9B" stroke-width="0.75"/>
<path d="M431 366C416.276 366 138.198 366 1.00001 366" stroke="#9B9B9B" stroke-width="0.25"/>
<path d="M431 396C416.276 396 138.198 396 1.00001 396" stroke="#9B9B9B" stroke-width="0.75"/>
<path d="M362 426C349.639 426 116.183 426 1.00001 426" stroke="#9B9B9B" stroke-width="0.25"/>
<path opacity="0.9" fill-rule="evenodd" clip-rule="evenodd" d="M370.09 414.442L375.745 419.883L379.176 420.217L374.701 416.281L370.09 414.442Z" fill="white"/>
<path fill-rule="evenodd" clip-rule="evenodd" d="M375.666 419.936L370.014 414.477L366.531 420.745L370.417 426.544L375.666 419.936Z" fill="white"/>
<path fill-rule="evenodd" clip-rule="evenodd" d="M370.493 426.558L375.754 419.97L379.197 420.277L375.063 424.9L370.493 426.558Z" fill="white"/>
<path d="M395.734 417.67H394.223L395.761 419.846L396.53 418.802L395.734 417.67Z" fill="white"/>
<path d="M392.552 420.874L388.723 417.484V419.122L393.786 423.593V417.67H392.552V420.874Z" fill="white"/>
<path d="M398.243 417.67L396.198 420.469V423.409H397.437V420.87L399.772 417.67H398.243Z" fill="white"/>
<path d="M384.253 418.745L385.549 421.244H385.064L384.448 422.45H386.161L386.662 423.409H388.045L384.953 417.406L384.253 418.745Z" fill="white"/>
<path d="M388.723 423.409V423.412H389.957V421.116L388.723 420.032V423.409Z" fill="white"/>
<path d="M383.881 419.487L381.864 423.41H383.243L384.568 420.835L383.881 419.487Z" fill="white"/>
<path d="M415.778 421.067C415.976 421.018 416.162 420.931 416.326 420.81C416.548 420.649 416.727 420.435 416.847 420.187C416.967 419.94 417.024 419.667 417.013 419.392C417.02 419.125 416.962 418.861 416.843 418.622C416.724 418.384 416.548 418.179 416.33 418.025C416.157 417.896 415.961 417.802 415.752 417.748C415.468 417.688 415.178 417.661 414.887 417.67H414.577V418.889H415.02C415.212 418.874 415.404 418.904 415.581 418.978C415.654 419.019 415.713 419.081 415.752 419.155C415.792 419.229 415.809 419.313 415.803 419.396C415.809 419.493 415.786 419.59 415.736 419.674C415.686 419.758 415.612 419.824 415.523 419.864C415.347 419.926 415.16 419.952 414.974 419.941H414.577V421.147H415.02C415.275 421.152 415.53 421.125 415.778 421.067Z" fill="white"/>
<path d="M400.35 418.707C399.938 419.232 399.717 419.883 399.723 420.551C399.724 421.012 399.831 421.467 400.035 421.881C400.239 422.295 400.536 422.656 400.902 422.937C401.345 423.276 401.869 423.493 402.422 423.564V422.319C401.962 422.221 401.556 421.951 401.288 421.563C401.111 421.309 401.003 421.013 400.975 420.705C400.947 420.396 401 420.086 401.128 419.804C401.23 419.569 401.381 419.36 401.571 419.19C401.817 418.98 402.111 418.834 402.427 418.767V417.519C402.019 417.567 401.624 417.697 401.267 417.901C400.911 418.105 400.599 418.379 400.35 418.707Z" fill="white"/>
<path d="M404.202 419.467L405.168 418.698C404.931 418.376 404.629 418.107 404.282 417.907C403.922 417.706 403.526 417.577 403.116 417.528V418.776C403.552 418.862 403.94 419.109 404.202 419.467Z" fill="white"/>
<path d="M425.363 419.467L426.331 418.698C426.093 418.377 425.792 418.107 425.445 417.907C425.085 417.706 424.689 417.577 424.279 417.528V418.776C424.714 418.863 425.101 419.109 425.363 419.467Z" fill="white"/>
<path d="M415.811 421.53C415.82 421.57 415.825 421.611 415.825 421.652C415.835 421.758 415.808 421.864 415.749 421.953C415.69 422.042 415.603 422.108 415.501 422.14C415.332 422.186 415.158 422.206 414.983 422.199H414.586V423.405H414.991C415.257 423.41 415.522 423.386 415.783 423.334C415.978 423.29 416.162 423.208 416.326 423.093C416.549 422.935 416.73 422.725 416.853 422.481C416.981 422.232 417.048 421.956 417.048 421.676C417.05 421.42 416.999 421.165 416.897 420.93C416.62 421.255 416.234 421.469 415.811 421.53Z" fill="white"/>
<path d="M421.511 418.707C421.099 419.232 420.878 419.883 420.886 420.551C420.887 421.012 420.993 421.468 421.198 421.881C421.402 422.295 421.699 422.656 422.065 422.937C422.508 423.277 423.032 423.493 423.586 423.564V422.319C423.124 422.221 422.717 421.951 422.449 421.563C422.272 421.309 422.165 421.013 422.137 420.705C422.109 420.396 422.162 420.086 422.289 419.804C422.39 419.569 422.541 419.359 422.732 419.19C422.977 418.979 423.272 418.834 423.588 418.767V417.519C423.18 417.567 422.785 417.697 422.428 417.901C422.072 418.105 421.76 418.379 421.511 418.707Z" fill="white"/>
<path d="M403.109 422.321V423.569C403.517 423.525 403.911 423.398 404.267 423.196C404.623 422.994 404.935 422.721 405.181 422.394L404.206 421.639C403.937 421.994 403.547 422.237 403.109 422.321Z" fill="white"/>
<path d="M425.367 421.639C425.096 421.996 424.701 422.24 424.259 422.321V423.569C424.667 423.525 425.061 423.398 425.418 423.196C425.774 422.994 426.086 422.721 426.333 422.394L425.367 421.639Z" fill="white"/>
<path d="M419.568 417.67H418.333V423.409H419.568V417.67Z" fill="white"/>
<path d="M407.808 421.785C407.682 421.483 407.627 421.156 407.648 420.83V417.67H406.409V420.943C406.398 421.294 406.445 421.644 406.547 421.98C406.642 422.265 406.798 422.527 407.003 422.747C407.187 422.952 407.405 423.123 407.648 423.252C407.89 423.386 408.153 423.478 408.426 423.525V422.264C408.169 422.184 407.95 422.014 407.808 421.785Z" fill="white"/>
<path d="M409.897 420.834C409.918 421.166 409.86 421.498 409.729 421.803C409.585 422.028 409.363 422.192 409.106 422.264V423.525C409.38 423.481 409.645 423.39 409.888 423.257C410.13 423.123 410.349 422.951 410.535 422.747C410.742 422.527 410.898 422.266 410.994 421.98C411.094 421.644 411.14 421.294 411.131 420.943V417.67H409.897V420.834Z" fill="white"/>
<path d="M413.886 417.67H412.651V423.409H413.886V417.67Z" fill="white"/>
<defs>
<radialGradient id="paint0_radial_1983_6404" cx="0" cy="0" r="1" gradientUnits="userSpaceOnUse" gradientTransform="translate(216 216) rotate(90) scale(259.047)">
<stop stop-color="white" stop-opacity="0.08"/>
<stop offset="1" stop-color="white" stop-opacity="0"/>
</radialGradient>
</defs>
</svg>
